<svg width="358" height="243" viewBox="0 0 358 243" fill="none" xmlns="http://www.w3.org/2000/svg">
<path fill-rule="evenodd" clip-rule="evenodd" d="M177.605 16.4282C211.171 15.1725 244.199 0.807099 275.62 10.1256C311.456 20.7533 353.736 40.0479 357.767 69.8581C361.92 100.577 309.447 116.806 293.884 145.196C280.655 169.328 298.562 201.83 275.118 220.623C251.225 239.777 211.729 236.472 177.605 238.408C140.58 240.509 98.2574 250.417 69.2422 232.304C40.2961 214.235 44.8119 179.614 37.8451 151.163C31.8631 126.735 22.9513 102.473 31.588 78.5354C40.4536 53.963 57.4969 29.4102 86.1737 17.2127C113.622 5.53805 146.397 17.5957 177.605 16.4282Z" fill="#00D1FF"/>
<path fill-rule="evenodd" clip-rule="evenodd" d="M152.779 9.4282C187.057 8.17253 220.785 -6.1929 252.873 3.12564C289.468 13.7533 332.645 33.0479 336.762 62.8581C341.004 93.5766 287.417 109.806 271.524 138.196C258.014 162.328 276.301 194.83 252.36 213.623C227.96 232.777 187.627 229.472 152.779 231.408C114.968 233.509 71.7477 243.417 42.1171 225.304C12.5569 207.235 17.1685 172.614 10.0539 144.163C3.94499 119.735 -5.15577 95.4734 3.66413 71.5354C12.7178 46.963 30.1226 22.4102 59.4077 10.2127C87.4377 -1.46195 120.909 10.5957 152.779 9.4282Z" fill="#0066FF"/>
</svg>
