<svg width="286" height="243" viewBox="0 0 286 243" fill="none" xmlns="http://www.w3.org/2000/svg">
<path fill-rule="evenodd" clip-rule="evenodd" d="M144.964 16.4282C171.207 15.1725 197.028 0.807099 221.594 10.1256C249.611 20.7533 282.666 40.0479 285.818 69.8581C289.065 100.577 248.041 116.806 235.873 145.196C225.53 169.328 239.53 201.83 221.202 220.623C202.521 239.777 171.643 236.472 144.964 238.408C116.017 240.509 82.9285 250.417 60.2439 232.304C37.6133 214.235 41.1438 179.614 35.6971 151.163C31.0202 126.735 24.0529 102.473 30.8052 78.5354C37.7364 53.963 51.0612 29.4102 73.4813 17.2127C94.9404 5.53805 120.565 17.5957 144.964 16.4282Z" fill="#00D1FF"/>
<path fill-rule="evenodd" clip-rule="evenodd" d="M116.964 9.4282C143.207 8.17253 169.028 -6.1929 193.594 3.12564C221.611 13.7533 254.666 33.0479 257.818 62.8581C261.065 93.5766 220.041 109.806 207.873 138.196C197.53 162.328 211.53 194.83 193.202 213.623C174.521 232.777 143.643 229.472 116.964 231.408C88.0168 233.509 54.9285 243.417 32.2439 225.304C9.61328 207.235 13.1438 172.614 7.69707 144.163C3.0202 119.735 -3.94714 95.4734 2.80518 71.5354C9.73645 46.963 23.0612 22.4102 45.4813 10.2127C66.9404 -1.46195 92.5653 10.5957 116.964 9.4282Z" fill="#0066FF"/>
</svg>
