<svg width="39" height="40" viewBox="0 0 39 40" fill="none" xmlns="http://www.w3.org/2000/svg">
<path d="M3.81618 6.76968C3.81618 6.80784 6.58122 8.63954 9.96325 10.8528L16.1103 14.8826L16.1332 10.891C16.1408 8.7006 16.1332 6.86127 16.1103 6.80784C16.0875 6.73916 14.7773 6.71626 9.9404 6.71626C6.56598 6.71626 3.80856 6.73916 3.81618 6.76968Z" fill="#41479B"/>
<path d="M22.8895 6.80784C22.8666 6.86127 22.859 8.7006 22.8666 10.891L22.8895 14.8826L29.0365 10.8528C32.4186 8.63954 35.1836 6.80784 35.1836 6.76968C35.1912 6.73916 32.4338 6.71626 29.0594 6.71626C24.2225 6.71626 22.9123 6.73916 22.8895 6.80784Z" fill="#41479B"/>
<path d="M17.5195 12.1732V17.5538H8.75977H0V19.5381V21.5225H8.75977H17.5195V26.9031V32.2837H19.5H21.4805V26.9031V21.5225H30.2402H39V19.5381V17.5538H30.2402H21.4805V12.1732V6.7926H19.5H17.5195V12.1732Z" fill="#FF4B55"/>
<path d="M30.0651 11.5092L23.0725 16.0655L24.2227 16.0884L25.3729 16.1113L31.8018 11.929L38.2307 7.74658L38.0631 7.56341C37.9108 7.40314 37.1872 6.93759 37.0958 6.95285C37.0729 6.95285 33.9118 9.00588 30.0651 11.5092Z" fill="#FF4B55"/>
<path d="M0.853113 7.66263C0.495105 8.05187 0.342762 8.31136 0.434168 8.39531C0.464637 8.42584 3.14589 10.1736 6.39081 12.28L12.2789 16.1113L13.4291 16.0884L14.5793 16.0655L8.72167 12.2571C5.49198 10.1583 2.47557 8.18925 2.00331 7.89159L1.1578 7.33445L0.853113 7.66263Z" fill="#FF4B55"/>
<path d="M0.0457031 9.41035C0.0228516 9.50194 0 11.0665 0 12.8753V16.18H5.30918C8.51602 16.18 10.5879 16.1495 10.5498 16.1113C10.4889 16.0579 0.571289 9.52483 0.182812 9.28824C0.129492 9.25771 0.0761719 9.3035 0.0457031 9.41035Z" fill="#41479B"/>
<path d="M33.706 12.6387C30.8572 14.5086 28.4959 16.0731 28.4578 16.1113C28.4121 16.1495 30.4763 16.18 33.6908 16.18H38.9999L38.9923 12.8371C38.9923 11.0055 38.9695 9.44088 38.939 9.37219C38.8933 9.26534 37.9792 9.83775 33.706 12.6387Z" fill="#41479B"/>
<path d="M0.00761719 26.2314C0.00761719 28.0707 0.0304688 29.6353 0.0609375 29.704C0.106641 29.8109 1.0207 29.2384 5.29395 26.4375C8.14277 24.5676 10.5041 23.0031 10.5498 22.9649C10.5879 22.9267 8.52363 22.8962 5.30918 22.8962H0L0.00761719 26.2314Z" fill="#41479B"/>
<path d="M28.4578 22.9649C28.4959 23.0031 30.8572 24.5676 33.706 26.4375C37.9792 29.2384 38.8933 29.8109 38.939 29.704C38.9695 29.6353 38.9923 28.0707 38.9923 26.2314L38.9999 22.8962H33.6908C30.4763 22.8962 28.4121 22.9267 28.4578 22.9649Z" fill="#41479B"/>
<path d="M7.16782 27.1473L0.75415 31.3144L0.952197 31.5205C1.06646 31.635 1.31782 31.8181 1.51587 31.925L1.87388 32.1234L4.76079 30.2459C6.35278 29.208 9.52153 27.1549 11.7991 25.6667L15.9428 22.9726H14.7622H13.5815L7.16782 27.1473Z" fill="#FF4B55"/>
<path d="M24.1923 23.0412C24.2303 23.0718 27.1934 25.0103 30.7735 27.3381C34.3536 29.6659 37.3776 31.6273 37.4995 31.7036L37.7052 31.8486L38.1241 31.4289C38.3526 31.1999 38.543 30.9709 38.543 30.9328C38.543 30.887 35.8161 29.0782 32.4874 26.9107L26.4317 22.9725H25.2739C24.6188 22.9725 24.1466 23.0031 24.1923 23.0412Z" fill="#FF4B55"/>
<path d="M9.96325 28.2234C6.58122 30.4367 3.81618 32.2684 3.81618 32.2989C3.80856 32.3371 6.56598 32.36 9.9404 32.36C14.7773 32.36 16.0875 32.3371 16.1103 32.2608C16.1332 32.215 16.1408 30.3756 16.1332 28.1852L16.1103 24.1937L9.96325 28.2234Z" fill="#41479B"/>
<path d="M22.8668 28.2463L22.8896 32.3218L29.0443 32.3447C32.4264 32.3524 35.1914 32.3371 35.1838 32.3066C35.1838 32.2608 24.7482 25.3843 23.0725 24.3158L22.8516 24.1785L22.8668 28.2463Z" fill="#41479B"/>
</svg>
