<svg width="39" height="39" viewBox="0 0 39 39" fill="none" xmlns="http://www.w3.org/2000/svg">
<g clip-path="url(#clip0)">
<path d="M0.799805 6.1623C0.43418 6.32988 0.274219 6.49746 0.114258 6.87832C0.0152344 7.12207 0 7.94473 0 13.292V19.4238H19.5H39V18.0908V16.7578H28.9072H18.8145V15.4248V14.0918H28.9072H39V12.7588V11.4258H28.9072H18.8145V10.0547V8.68359H28.9148H39.0152L38.9924 7.82285C38.9543 6.84785 38.8324 6.54316 38.3297 6.23086L38.0478 6.05566L19.5762 6.04043C1.7748 6.01758 1.09687 6.02519 0.799805 6.1623ZM1.52344 7.00019C1.65293 7.2668 1.71387 7.3125 2.02617 7.3582L2.37656 7.40391L2.1252 7.66289C1.9043 7.89141 1.88906 7.94473 1.92715 8.26465L1.98047 8.60742L1.67578 8.45508L1.37109 8.30273L1.06641 8.45508C0.906445 8.53887 0.754102 8.60742 0.738867 8.60742C0.723633 8.60742 0.73125 8.4627 0.769336 8.27988C0.822656 7.99043 0.807422 7.93711 0.601758 7.73144C0.479883 7.60195 0.380859 7.47246 0.380859 7.44961C0.380859 7.42676 0.533203 7.38106 0.716016 7.3582C1.00547 7.3125 1.05879 7.27441 1.18066 7.00781C1.25684 6.84023 1.33301 6.70312 1.34062 6.70312C1.35586 6.70312 1.43965 6.84023 1.52344 7.00019ZM4.19707 7.00019C4.31133 7.27441 4.35703 7.30488 4.68457 7.35059L5.04258 7.40391L4.79883 7.65527C4.57793 7.88379 4.56269 7.92949 4.6084 8.26465L4.66934 8.62266L4.34941 8.4627L4.03711 8.30273L3.7248 8.4627L3.40488 8.62266L3.46582 8.26465C3.51152 7.92949 3.49629 7.88379 3.27539 7.65527L3.03164 7.40391L3.37441 7.3582C3.6791 7.3125 3.7248 7.27441 3.84668 7.00781C3.92285 6.84023 4.00664 6.70312 4.02949 6.70312C4.05234 6.70312 4.12852 6.84023 4.19707 7.00019ZM7.36582 7.3582C7.54863 7.38106 7.69336 7.42676 7.69336 7.44961C7.69336 7.47246 7.59434 7.60195 7.47246 7.73144C7.2668 7.93711 7.25156 7.99043 7.30488 8.27988C7.34297 8.4627 7.35059 8.60742 7.33535 8.60742C7.32012 8.60742 7.16777 8.53887 7.00781 8.45508L6.70312 8.30273L6.39082 8.45508L6.08613 8.61504L6.13945 8.26465C6.18516 7.93711 6.16992 7.89141 5.94141 7.66289L5.69766 7.40391L6.04805 7.3582C6.36797 7.30488 6.41367 7.2668 6.56601 6.98496L6.72598 6.66504L6.87832 6.98496C7.01543 7.27441 7.06875 7.3125 7.36582 7.3582ZM9.59766 7.00019C9.72715 7.2668 9.78809 7.3125 10.1004 7.3582L10.4508 7.40391L10.1994 7.66289C9.97851 7.89141 9.96328 7.94473 10.0014 8.25703C10.0318 8.45508 10.0395 8.60742 10.0166 8.60742C10.0014 8.60742 9.86426 8.53125 9.71191 8.44746L9.43769 8.27988L9.13301 8.45508C8.96543 8.54648 8.81308 8.60742 8.79785 8.5998C8.78262 8.58457 8.79785 8.42461 8.82832 8.24941C8.88164 7.95996 8.86641 7.90664 8.67598 7.72383C8.5541 7.60957 8.45508 7.48769 8.45508 7.45723C8.45508 7.42676 8.60742 7.38106 8.79023 7.3582C9.07969 7.3125 9.13301 7.27441 9.25488 7.00781C9.33105 6.84023 9.40723 6.70312 9.41484 6.70312C9.43008 6.70312 9.51387 6.84023 9.59766 7.00019ZM12.2637 7.00019C12.3932 7.2668 12.4541 7.3125 12.7664 7.3582L13.1168 7.40391L12.873 7.66289C12.6445 7.89141 12.6293 7.93711 12.675 8.26465L12.7283 8.61504L12.4236 8.45508L12.1113 8.30273L11.799 8.4627L11.4791 8.62266L11.5324 8.25703C11.5781 7.92187 11.5629 7.87617 11.342 7.64766L11.1059 7.40391L11.4486 7.3582C11.7533 7.3125 11.799 7.27441 11.9209 7.00781C11.9971 6.84023 12.0732 6.70312 12.0809 6.70312C12.0961 6.70312 12.1799 6.84023 12.2637 7.00019ZM15.44 7.3582C15.6229 7.38106 15.7676 7.43437 15.7676 7.46484C15.7676 7.50293 15.6609 7.60195 15.5391 7.69336C15.3182 7.85332 15.3105 7.87617 15.3562 8.2418L15.4096 8.62266L15.0896 8.4627L14.7773 8.30273L14.465 8.45508L14.1604 8.61504L14.2137 8.26465C14.2594 7.93711 14.2441 7.89141 14.0156 7.66289L13.7719 7.40391L14.1223 7.3582C14.4422 7.30488 14.4879 7.2668 14.6402 6.98496L14.8002 6.66504L14.9525 6.98496C15.0896 7.27441 15.143 7.3125 15.44 7.3582ZM17.6719 7.00019C17.7937 7.25156 17.8699 7.30488 18.1289 7.35059C18.2965 7.38105 18.4336 7.42676 18.4336 7.45723C18.4336 7.48769 18.3346 7.60957 18.2127 7.72383C18.0223 7.90664 18.007 7.95996 18.0604 8.24941C18.0908 8.42461 18.1061 8.57695 18.0908 8.59219C18.0756 8.60742 17.9309 8.53887 17.7633 8.44746L17.4662 8.27227L17.1844 8.44746C17.032 8.54648 16.8873 8.61504 16.8721 8.5998C16.8568 8.58457 16.8721 8.42461 16.9025 8.24941C16.9559 7.95996 16.9406 7.90664 16.7502 7.72383C16.6283 7.60957 16.5293 7.48769 16.5293 7.45723C16.5293 7.42676 16.6816 7.37344 16.8645 7.35059C17.1691 7.30488 17.2148 7.2668 17.3215 7.00019C17.39 6.84023 17.4586 6.70312 17.4814 6.70312C17.4967 6.70312 17.5881 6.84023 17.6719 7.00019ZM3.01641 9.53672C3.17637 9.84902 3.25254 9.90234 3.56484 9.90234C3.86191 9.90234 3.86953 9.96328 3.58769 10.2375C3.39727 10.4203 3.38203 10.4736 3.43535 10.7631C3.46582 10.9383 3.48105 11.0906 3.46582 11.1059C3.45059 11.1211 3.31348 11.0678 3.15352 10.984C2.85645 10.8316 2.85645 10.8316 2.56699 10.984C2.39941 11.0678 2.25469 11.1211 2.24707 11.1059C2.23184 11.0906 2.24707 10.9459 2.28516 10.7783C2.34609 10.4965 2.33848 10.4508 2.1252 10.2375C1.88145 9.98613 1.89668 9.90234 2.20137 9.90234C2.46035 9.90234 2.54414 9.84141 2.69648 9.53672C2.76504 9.40723 2.84121 9.29297 2.85644 9.29297C2.87168 9.29297 2.94785 9.40723 3.01641 9.53672ZM5.75098 9.58242C5.86523 9.7957 5.95664 9.87188 6.13184 9.88711C6.57363 9.93281 6.59648 9.96328 6.32988 10.2375C6.10137 10.4736 6.08613 10.527 6.13184 10.8088C6.1623 10.984 6.1623 11.1211 6.13945 11.1211C6.1166 11.1211 5.97949 11.0602 5.82715 10.9916C5.57578 10.8697 5.54531 10.8697 5.29394 10.9916C5.1416 11.0602 5.00449 11.1211 4.97402 11.1211C4.95117 11.1211 4.95117 10.9764 4.97402 10.7936C5.01211 10.5117 4.98926 10.4432 4.78359 10.2299C4.52461 9.96328 4.54746 9.93281 4.98926 9.88711C5.16445 9.87188 5.25586 9.7957 5.37012 9.58242C5.45391 9.42246 5.53769 9.29297 5.56055 9.29297C5.5834 9.29297 5.66719 9.42246 5.75098 9.58242ZM8.41699 9.58242C8.53125 9.7957 8.62266 9.87188 8.79785 9.88711C9.23965 9.93281 9.2625 9.96328 8.9959 10.2375C8.775 10.466 8.75976 10.5193 8.80547 10.8012C8.83594 10.9764 8.83594 11.1211 8.81308 11.1211C8.78262 11.1211 8.64551 11.0602 8.49316 10.9916C8.2418 10.8697 8.21133 10.8697 7.95996 10.9916C7.80762 11.0602 7.67051 11.1211 7.64766 11.1211C7.6248 11.1211 7.6248 10.984 7.65527 10.8088C7.70098 10.527 7.68574 10.4736 7.45723 10.2375C7.19062 9.96328 7.21348 9.93281 7.65527 9.88711C7.83047 9.87188 7.92187 9.7957 8.03613 9.58242C8.11992 9.42246 8.20371 9.29297 8.22656 9.29297C8.24941 9.29297 8.3332 9.42246 8.41699 9.58242ZM11.1211 9.59766C11.2582 9.86426 11.3115 9.90234 11.5324 9.90234C11.8904 9.90234 11.9133 9.9709 11.6619 10.2375C11.4562 10.4508 11.441 10.5041 11.4943 10.7936C11.5629 11.1592 11.5324 11.182 11.1896 10.9764C10.9459 10.824 10.9383 10.824 10.6412 10.9764C10.4812 11.0602 10.3365 11.1211 10.3213 11.1059C10.3061 11.0906 10.3213 10.9383 10.3518 10.7631C10.4051 10.4736 10.3898 10.4203 10.1994 10.2375C9.91758 9.96328 9.92519 9.90234 10.2299 9.90234C10.5346 9.90234 10.6107 9.84902 10.7707 9.53672C10.8393 9.40723 10.9154 9.29297 10.9307 9.29297C10.9535 9.29297 11.0373 9.43008 11.1211 9.59766ZM13.8252 9.58242C13.9395 9.7957 14.0309 9.87188 14.2061 9.88711C14.6555 9.93281 14.6783 9.97852 14.4041 10.207C14.1604 10.4127 14.1527 10.4508 14.1908 10.7707C14.2213 10.9611 14.2137 11.1211 14.1832 11.1211C14.1527 11.1135 14.0156 11.0525 13.8709 10.9764C13.6119 10.8393 13.5967 10.8393 13.3758 10.9764C13.0406 11.182 13.0025 11.1592 13.0482 10.7859C13.0939 10.4965 13.0711 10.4355 12.873 10.2451C12.6064 9.99375 12.6369 9.90234 12.9873 9.90234C13.2158 9.90234 13.2691 9.86426 13.4062 9.59766C13.49 9.43008 13.5891 9.29297 13.6195 9.29297C13.65 9.29297 13.7414 9.42246 13.8252 9.58242ZM16.4912 9.58242C16.6055 9.7957 16.6969 9.87188 16.8721 9.88711C17.3139 9.93281 17.3367 9.96328 17.0701 10.2375C16.8492 10.466 16.834 10.5193 16.8797 10.8012C16.9102 10.9764 16.9102 11.1211 16.8873 11.1211C16.8568 11.1211 16.7197 11.0602 16.5674 10.9916C16.316 10.8697 16.2855 10.8697 16.0342 10.9916C15.8818 11.0602 15.7447 11.1211 15.7219 11.1211C15.699 11.1211 15.699 10.984 15.7295 10.8088C15.7752 10.527 15.76 10.4736 15.5314 10.2375C15.2648 9.96328 15.2877 9.93281 15.7295 9.88711C15.9047 9.87188 15.9961 9.7957 16.1103 9.58242C16.1941 9.42246 16.2779 9.29297 16.3008 9.29297C16.3236 9.29297 16.4074 9.42246 16.4912 9.58242ZM1.51582 12.1037C1.65293 12.3627 1.71387 12.4008 2.02617 12.4541L2.37656 12.5074L2.13281 12.7588C1.9043 12.9949 1.88906 13.0482 1.92715 13.3605L1.98047 13.7109L1.64531 13.5434L1.31016 13.3834L1.02832 13.5434C0.875976 13.6348 0.738867 13.7109 0.73125 13.7109C0.716016 13.7109 0.738867 13.551 0.769336 13.3529C0.837891 13.0102 0.830273 12.9873 0.609375 12.8121C0.4875 12.7131 0.380859 12.6064 0.380859 12.5684C0.380859 12.5303 0.533203 12.477 0.716016 12.4541C1.01309 12.4084 1.06641 12.3703 1.18066 12.1037C1.25684 11.9437 1.33301 11.8066 1.34062 11.8066C1.35586 11.8066 1.43965 11.9361 1.51582 12.1037ZM4.22754 12.1037C4.3418 12.3703 4.39512 12.4084 4.6998 12.4541L5.04258 12.5074L4.79883 12.7588C4.57793 12.9873 4.56269 13.033 4.6084 13.3682L4.66934 13.7262L4.34941 13.5662L4.03711 13.4062L3.7248 13.5662L3.40488 13.7262L3.46582 13.3682C3.51152 13.033 3.49629 12.9873 3.27539 12.7588L3.03164 12.5074L3.37441 12.4541C3.6791 12.4084 3.73242 12.3703 3.84668 12.1037C3.92285 11.9437 4.00664 11.8066 4.03711 11.8066C4.06758 11.8066 4.15137 11.9437 4.22754 12.1037ZM7.36582 12.4541C7.54101 12.477 7.69336 12.515 7.69336 12.5379C7.69336 12.5607 7.59434 12.6598 7.47246 12.7664C7.25918 12.9416 7.24394 12.9797 7.28965 13.3453L7.33535 13.7414L7.05352 13.5586L6.76406 13.3834L6.42129 13.551L6.08613 13.7109L6.13945 13.3605C6.18516 13.0406 6.16992 12.9949 5.94141 12.7588L5.69766 12.5074L6.04805 12.4541C6.36797 12.4008 6.42129 12.3627 6.56601 12.0809L6.72598 11.7686L6.87832 12.0885C7.01543 12.3703 7.06875 12.4084 7.36582 12.4541ZM9.59004 12.1037C9.72715 12.3627 9.78809 12.4008 10.1004 12.4541L10.4508 12.5074L10.207 12.7588C9.97851 12.9949 9.96328 13.0482 10.0014 13.3682L10.0547 13.7109L9.73476 13.551L9.41484 13.391L9.09492 13.551L8.76738 13.7033L8.80547 13.4596C8.82832 13.3225 8.85879 13.1777 8.87402 13.132C8.88926 13.0787 8.79785 12.9492 8.67598 12.8273C8.5541 12.7131 8.45508 12.5912 8.45508 12.5607C8.45508 12.5303 8.60742 12.477 8.79023 12.4541C9.0873 12.4084 9.14062 12.3703 9.25488 12.1037C9.33105 11.9437 9.40723 11.8066 9.41484 11.8066C9.43008 11.8066 9.51387 11.9361 9.59004 12.1037ZM12.2713 12.1037C12.3855 12.3703 12.4312 12.4008 12.7588 12.4465L13.1168 12.5074L12.873 12.7588C12.6521 12.9873 12.6369 13.033 12.6826 13.3682L12.7436 13.7262L12.416 13.5586L12.0885 13.391L11.7838 13.5662L11.4791 13.7338L11.5324 13.3682C11.5781 13.0254 11.5629 12.9797 11.342 12.7512L11.1059 12.5074L11.4486 12.4541C11.7533 12.4084 11.8066 12.3703 11.9209 12.1037C11.9971 11.9437 12.0809 11.8066 12.1037 11.8066C12.1266 11.8066 12.2027 11.9437 12.2713 12.1037ZM15.4477 12.4541L15.7828 12.5074L15.5467 12.7512C15.3258 12.9797 15.3105 13.0254 15.3639 13.3682L15.4096 13.7414L15.1277 13.5586L14.8383 13.3834L14.4955 13.551L14.1604 13.7109L14.2137 13.3605C14.2594 13.0406 14.2441 12.9949 14.0156 12.7588L13.7719 12.5074L14.1223 12.4541C14.4422 12.4008 14.4955 12.3627 14.6402 12.0809L14.8002 11.7686L14.9525 12.0885C15.0896 12.3703 15.143 12.4084 15.4477 12.4541ZM17.6643 12.1037C17.8014 12.3627 17.8623 12.4008 18.1746 12.4541L18.525 12.5074L18.2508 12.7893C18.0984 12.9416 17.9842 13.0863 17.9994 13.1092C18.0146 13.1244 18.0527 13.2691 18.0756 13.4215L18.1213 13.7109L17.809 13.551L17.4891 13.391L17.1691 13.551L16.8416 13.7033L16.8797 13.4596C16.9025 13.3225 16.933 13.1777 16.9482 13.132C16.9635 13.0787 16.8721 12.9492 16.7502 12.8273C16.6283 12.7131 16.5293 12.5912 16.5293 12.5531C16.5293 12.5227 16.6664 12.4693 16.834 12.4465C17.1006 12.4008 17.1691 12.3475 17.2986 12.1037C17.3824 11.9361 17.4586 11.8066 17.4814 11.8066C17.5043 11.8066 17.5881 11.9361 17.6643 12.1037ZM3.30586 14.9602C3.39727 14.983 3.54199 15.0059 3.64102 15.0059C3.86191 15.0059 3.8543 15.0896 3.58769 15.341C3.39727 15.5238 3.38203 15.5771 3.43535 15.8666C3.46582 16.0418 3.48105 16.1941 3.46582 16.2094C3.45059 16.2246 3.31348 16.1713 3.15352 16.0875C2.85645 15.9352 2.85645 15.9352 2.56699 16.0875C2.39941 16.1713 2.2623 16.2246 2.24707 16.2094C2.23184 16.1941 2.24707 16.0418 2.27754 15.8666C2.33086 15.5771 2.31562 15.5238 2.1252 15.341C1.85859 15.0896 1.85098 15.0059 2.07949 15.0059C2.42988 15.0059 2.57461 14.9145 2.71172 14.6098L2.84883 14.3051L3.00117 14.6098C3.07734 14.7773 3.22207 14.9373 3.30586 14.9602ZM5.70527 14.6174C5.87285 14.9373 5.98711 15.0059 6.34512 15.0059H6.58125L6.32988 15.2648C6.09375 15.5086 6.07852 15.5543 6.12422 15.8742C6.15469 16.0646 6.1623 16.2246 6.13184 16.2246C6.10898 16.2246 5.95664 16.1561 5.79668 16.0799C5.51484 15.9275 5.50723 15.9275 5.26348 16.0799C5.13398 16.1561 5.00449 16.2246 4.97402 16.2246C4.95117 16.2246 4.95117 16.0723 4.97402 15.8895C5.01973 15.5924 4.99687 15.5391 4.79883 15.3486C4.50176 15.0668 4.50937 15.0059 4.8293 15.0059C5.12637 15.0059 5.26348 14.8992 5.4082 14.5564C5.46152 14.427 5.51484 14.3203 5.53008 14.3203C5.54531 14.3203 5.62148 14.4498 5.70527 14.6174ZM11.3801 14.9602C11.4715 14.983 11.6162 15.0059 11.7152 15.0059C11.9361 15.0059 11.9285 15.0668 11.6543 15.3486C11.4486 15.5543 11.441 15.6 11.502 15.8818C11.54 16.0494 11.5553 16.1941 11.54 16.2094C11.5248 16.2246 11.3877 16.1713 11.2277 16.0875C10.9307 15.9352 10.9307 15.9352 10.6412 16.0875C10.4736 16.1713 10.3365 16.2246 10.3213 16.2094C10.3061 16.1941 10.3213 16.0418 10.3518 15.8666C10.4051 15.5771 10.3898 15.5238 10.1994 15.341C9.93281 15.0896 9.92519 15.0059 10.1537 15.0059C10.5041 15.0059 10.6488 14.9145 10.7859 14.6098L10.923 14.3051L11.0754 14.6098C11.1516 14.7773 11.2963 14.9373 11.3801 14.9602ZM13.7795 14.6174C13.9471 14.9373 14.0613 15.0059 14.4193 15.0059H14.6555L14.4041 15.2648C14.168 15.5086 14.1527 15.5543 14.1908 15.8742C14.2213 16.0723 14.2213 16.2246 14.1984 16.2246C14.1832 16.2246 14.0309 16.1561 13.8785 16.0799C13.6043 15.9352 13.5891 15.9352 13.3301 16.0799C12.9645 16.2703 12.9568 16.2627 13.033 15.9047C13.1016 15.6152 13.0939 15.5771 12.873 15.3486C12.7512 15.2191 12.6445 15.0896 12.6445 15.0592C12.6445 15.0287 12.7588 15.0059 12.9035 15.0059C13.2006 15.0059 13.3377 14.8992 13.4824 14.5564C13.5357 14.427 13.5891 14.3203 13.6043 14.3203C13.6195 14.3203 13.6957 14.4498 13.7795 14.6174ZM8.41699 14.6555C8.53125 14.9373 8.65312 15.0059 8.9959 15.0059C9.27773 15.0059 9.27773 15.0744 8.98828 15.3486C8.79023 15.5391 8.76738 15.5924 8.81308 15.8895C8.83594 16.0723 8.83594 16.2246 8.81308 16.2246C8.78262 16.2246 8.65312 16.1561 8.52363 16.0799C8.27988 15.9275 8.27226 15.9275 7.99043 16.0799C7.83047 16.1561 7.67812 16.2246 7.65527 16.2246C7.63242 16.2246 7.63242 16.057 7.66289 15.8514C7.70859 15.501 7.70098 15.4705 7.47246 15.3029C7.17539 15.082 7.17539 15.0059 7.47246 15.0059C7.79238 15.0059 7.95996 14.8992 8.07422 14.625C8.19609 14.3279 8.2875 14.3355 8.41699 14.6555ZM16.4531 14.625C16.5674 14.8992 16.735 15.0059 17.0549 15.0059C17.352 15.0059 17.352 15.0744 17.0625 15.3486C16.8492 15.5467 16.834 15.6 16.8797 15.8971C16.9025 16.0799 16.9025 16.2246 16.8721 16.2246C16.8416 16.2246 16.7045 16.1561 16.5598 16.0723L16.316 15.9123L16.057 16.0723C15.699 16.2855 15.6686 16.2703 15.7219 15.8818C15.7752 15.5619 15.76 15.5238 15.5467 15.341C15.2496 15.0896 15.2496 15.0059 15.5467 15.0059C15.8666 15.0059 16.0342 14.8992 16.1484 14.625C16.2018 14.5031 16.2703 14.3965 16.3008 14.3965C16.3312 14.3965 16.3998 14.5031 16.4531 14.625ZM1.52344 17.2148C1.6377 17.4281 1.7291 17.5195 1.85098 17.5195C1.94238 17.5195 2.09473 17.5424 2.19375 17.5652L2.36895 17.6186L2.1252 17.8699C1.9043 18.0984 1.88906 18.1518 1.92715 18.4717L1.98047 18.8145L1.66055 18.6545C1.36348 18.5021 1.33301 18.5021 1.08926 18.6164C0.723633 18.7916 0.693164 18.7764 0.769336 18.4184C0.837891 18.1213 0.830273 18.0908 0.601758 17.8547L0.365625 17.6109L0.693164 17.5424C0.975 17.4891 1.05117 17.4357 1.16543 17.192C1.23398 17.0396 1.31016 16.9102 1.33301 16.9102C1.34824 16.9102 1.43965 17.0473 1.52344 17.2148ZM4.22754 17.2148C4.33418 17.451 4.41035 17.5195 4.56269 17.5271C4.66934 17.5271 4.82168 17.5576 4.89785 17.5805C5.01973 17.6338 5.00449 17.6643 4.79883 17.8623C4.57793 18.0756 4.56269 18.1137 4.6084 18.4564L4.66172 18.8297L4.34941 18.6469L4.03711 18.4717L3.7248 18.6393L3.40488 18.8145L3.4582 18.4488C3.50391 18.1137 3.48867 18.068 3.27539 17.8623C3.06973 17.6643 3.05449 17.6338 3.17637 17.5805C3.25254 17.5576 3.40488 17.5271 3.51152 17.5271C3.66387 17.5195 3.74004 17.451 3.84668 17.2148C3.92285 17.0473 4.00664 16.9102 4.03711 16.9102C4.06758 16.9102 4.15137 17.0473 4.22754 17.2148ZM7.22871 17.5271C7.34297 17.5271 7.48769 17.5576 7.56387 17.5805C7.68574 17.6338 7.67812 17.6643 7.47246 17.8547C7.2668 18.0527 7.24394 18.1061 7.28965 18.4031C7.3125 18.5859 7.3125 18.7383 7.28965 18.7383C7.25918 18.7383 7.12969 18.685 6.98496 18.6164C6.74121 18.5021 6.71074 18.5021 6.40605 18.6621L6.08613 18.8221L6.13945 18.4717C6.18516 18.1441 6.16992 18.0984 5.94902 17.8699L5.70527 17.6186L5.88047 17.5652C5.97949 17.5424 6.13184 17.5195 6.22324 17.5195C6.34512 17.5195 6.44414 17.4281 6.5584 17.1996L6.72598 16.8721L6.87832 17.1996C7.00019 17.451 7.08398 17.5195 7.22871 17.5271ZM9.59766 17.2148C9.71191 17.4281 9.80332 17.5195 9.92519 17.5195C10.0166 17.5195 10.1689 17.5424 10.268 17.5652L10.4432 17.6186L10.1994 17.8699C9.97851 18.0984 9.96328 18.1518 10.0014 18.4717L10.0547 18.8145L9.73476 18.6545C9.43769 18.5021 9.40723 18.5021 9.16348 18.6164C8.79785 18.7916 8.775 18.7764 8.84355 18.4107C8.90449 18.1137 8.88926 18.0756 8.66836 17.8699C8.40937 17.6338 8.46269 17.5195 8.85117 17.5195C9.01875 17.5195 9.09492 17.4586 9.2168 17.2148C9.30058 17.0473 9.38437 16.9102 9.40723 16.9102C9.43008 16.9102 9.51387 17.0473 9.59766 17.2148ZM12.3018 17.2148C12.4084 17.451 12.4846 17.5195 12.6369 17.5271C12.7436 17.5271 12.8959 17.5576 12.9721 17.5805C13.0939 17.6338 13.0787 17.6643 12.873 17.8623C12.6521 18.0756 12.6369 18.1137 12.6902 18.4641L12.7359 18.8373L12.416 18.6545L12.0961 18.4717L11.7914 18.6469L11.4791 18.8145L11.5324 18.4488C11.5781 18.1137 11.5629 18.068 11.3496 17.8623C11.1439 17.6643 11.1287 17.6338 11.2506 17.5805C11.3268 17.5576 11.4791 17.5271 11.5857 17.5271C11.7381 17.5195 11.8143 17.451 11.9209 17.2148C11.9971 17.0473 12.0809 16.9102 12.1113 16.9102C12.1418 16.9102 12.2256 17.0473 12.3018 17.2148ZM15.3029 17.5271C15.4172 17.5271 15.5619 17.5576 15.6381 17.5805C15.76 17.6338 15.7523 17.6643 15.5467 17.8547C15.341 18.0527 15.3182 18.1061 15.3639 18.4031C15.3867 18.5859 15.3867 18.7383 15.3639 18.7383C15.3334 18.7383 15.2039 18.685 15.0592 18.6164C14.8154 18.5021 14.785 18.5021 14.4803 18.6621L14.1604 18.8221L14.2137 18.4717C14.2594 18.1441 14.2441 18.0984 14.0232 17.8699L13.7795 17.6186L13.9547 17.5652C14.0537 17.5424 14.2061 17.5195 14.2975 17.5195C14.4193 17.5195 14.5184 17.4281 14.6326 17.1996L14.8002 16.8721L14.9525 17.1996C15.0744 17.451 15.1582 17.5195 15.3029 17.5271ZM17.6719 17.2148C17.7937 17.451 17.8699 17.5195 18.0375 17.5271C18.1518 17.5271 18.3041 17.5576 18.3803 17.5881C18.5021 17.6338 18.4869 17.6643 18.2584 17.8775C18.007 18.1061 17.9918 18.1365 18.0604 18.4107C18.1594 18.8297 18.1594 18.8297 17.809 18.6545L17.4891 18.4945L17.1691 18.6545L16.8416 18.8068L16.8797 18.5631C16.9025 18.426 16.9406 18.2736 16.9559 18.2203C16.9711 18.167 16.8721 18.0146 16.735 17.8928C16.5293 17.7023 16.5141 17.6566 16.6055 17.5957C16.6664 17.5576 16.8111 17.5195 16.9254 17.5195C17.093 17.5195 17.1691 17.4586 17.291 17.2148C17.3748 17.0473 17.4586 16.9102 17.4814 16.9102C17.5043 16.9102 17.5881 17.0473 17.6719 17.2148Z" fill="#1B1D3D"/>
<path d="M0 23.499V24.832H19.5H39V23.499V22.166H19.5H0V23.499Z" fill="#1B1D3D"/>
<path d="M0 28.9072V28.9072C0 29.6434 0.596808 30.2402 1.33301 30.2402H19.5H37.667C38.4032 30.2402 39 29.6434 39 28.9072V28.9072V27.5742H19.5H0V28.9072Z" fill="#1B1D3D"/>
</g>
<defs>
<clipPath id="clip0">
<rect width="39" height="39" fill="white"/>
</clipPath>
</defs>
</svg>
