<svg width="39" height="39" viewBox="0 0 39 39" fill="none" xmlns="http://www.w3.org/2000/svg">
<path d="M18.3574 6.36035V7.99805H19.5H20.6426V6.36035V4.72266H19.5H18.3574V6.36035Z" fill="#1B1D3D"/>
<path d="M11.3725 6.87832C10.8545 7.18301 10.4355 7.45723 10.4355 7.4877C10.4355 7.61719 11.9742 10.207 12.0504 10.207C12.1799 10.207 13.9318 9.18633 13.9395 9.11016C13.9395 9.01875 12.3932 6.32227 12.3398 6.32988C12.317 6.32988 11.8828 6.58125 11.3725 6.87832Z" fill="#1B1D3D"/>
<path d="M25.8451 7.68574C25.4109 8.43223 25.0605 9.07207 25.0605 9.11016C25.0682 9.17871 26.8354 10.207 26.9572 10.207C27.0258 10.207 28.5645 7.60195 28.5645 7.4877C28.5645 7.43438 26.7135 6.31465 26.6449 6.32227C26.6297 6.32227 26.2717 6.93926 25.8451 7.68574Z" fill="#1B1D3D"/>
<path d="M18.4336 10.9307C18.3727 10.9459 18.0604 10.9992 17.748 11.0449C14.427 11.5781 11.4258 14.0309 10.1385 17.2529C9.9709 17.6719 9.81094 18.1441 9.78809 18.2965C9.75762 18.4564 9.71191 18.5859 9.69668 18.5859C9.67383 18.5859 9.17109 18.4869 8.57695 18.365C5.95664 17.8242 3.13066 17.7176 0.632227 18.0604L0 18.1518V19.3248V20.4902L0.175195 20.4521C0.601758 20.3531 1.43203 20.2617 2.52129 20.1779C5.20254 19.9875 8.42461 20.4674 11.083 21.4424C13.0635 22.166 15.6152 23.6514 17.3291 25.0682C17.748 25.4186 18.6926 26.3021 19.4238 27.0486C21.6328 29.2805 22.8896 30.324 24.893 31.5656C25.4186 31.8932 27.102 32.7158 27.8637 33.0129C29.7451 33.7518 32.434 34.2773 34.3764 34.2773H34.9629V33.1348V31.9922H34.3688C32.952 31.9922 31.002 31.657 29.448 31.1391C28.5416 30.842 27.2695 30.2936 27.2695 30.2021C27.2695 30.0955 29.3566 29.151 30.2098 28.8691C32.8148 28.016 35.7551 27.8256 38.2383 28.3359C38.6344 28.4197 38.9695 28.4883 38.9848 28.4883C38.9924 28.4883 39 27.9627 39 27.3152V26.1498L38.5658 26.066C37.0424 25.7766 34.4982 25.6928 33.0586 25.8908C30.3012 26.2641 27.8027 27.14 25.7156 28.4502C25.35 28.6787 25.0148 28.8691 24.9844 28.8691C24.8701 28.8691 22.5469 27.0182 22.5469 26.9268C22.5469 26.8658 24.3521 25.708 25.0225 25.3348C28.4121 23.4457 32.6854 22.4936 36.5092 22.7678C37.2328 22.8211 38.0859 22.9049 38.4135 22.9582L39 23.0496V21.8918V20.734L38.4135 20.6502C35.9912 20.2846 32.8682 20.3988 30.3697 20.9473C29.9889 21.0311 29.6537 21.0996 29.6232 21.0996C29.6004 21.0996 29.5547 20.7111 29.5318 20.2389C29.4023 17.7861 28.2979 15.4705 26.4088 13.6652C25.0453 12.3627 23.5143 11.54 21.6328 11.1135C21.0387 10.9764 18.784 10.8469 18.4336 10.9307ZM21.4043 13.3986C22.1508 13.5891 23.2324 14.0842 23.9256 14.5564C24.9996 15.2801 26.1422 16.6588 26.6602 17.8775C27.0867 18.8906 27.2238 19.5838 27.2314 20.7568V21.8156L26.4316 22.1432C24.7025 22.8516 23.0191 23.7809 21.6023 24.7939L20.9168 25.2814L20.1475 24.5426C17.9385 22.4098 15.0592 20.5436 12.3779 19.5C12.1266 19.401 11.9057 19.3096 11.898 19.302C11.8828 19.2943 11.9285 19.0811 11.9971 18.8373C12.5988 16.7578 14.0918 14.9678 16.0342 14.0004C16.773 13.6348 17.1463 13.4977 17.9385 13.3301C18.8525 13.132 20.4521 13.1625 21.4043 13.3986Z" fill="#1B1D3D"/>
<path d="M5.42353 12.8426C5.11884 13.3682 4.87509 13.8176 4.89033 13.8328C4.90556 13.8404 5.51494 14.206 6.24619 14.625C6.97744 15.0516 7.59443 15.4096 7.6249 15.4248C7.6706 15.4553 8.75986 13.6043 8.75986 13.4977C8.75986 13.4367 6.24619 11.9514 6.05576 11.898C6.01767 11.8904 5.72822 12.3094 5.42353 12.8426Z" fill="#1B1D3D"/>
<path d="M31.5885 12.6598C30.8496 13.0863 30.2402 13.4672 30.2402 13.5053C30.2402 13.5357 30.484 13.9928 30.7887 14.5107L31.3371 15.4553L31.5656 15.3182C31.6951 15.242 32.2969 14.8916 32.9063 14.5488C33.5156 14.1984 34.0412 13.8861 34.0717 13.8633C34.1326 13.8099 33.0662 11.8828 32.9824 11.8828C32.9596 11.8828 32.335 12.2332 31.5885 12.6598Z" fill="#1B1D3D"/>
<path d="M2.37656 23.24C1.94238 23.2705 1.23398 23.3543 0.792187 23.4305L0 23.56V24.7254C0 25.3729 0.00761719 25.8984 0.0228516 25.8984C0.0304687 25.8984 0.388477 25.8299 0.822656 25.7461C3.68672 25.19 6.95449 25.51 9.68144 26.6145C12.0656 27.5742 14.3127 29.1891 15.8209 31.0248C16.0494 31.3066 16.2703 31.5352 16.2932 31.5352C16.3693 31.5352 18.007 30.2479 18.0375 30.1717C18.068 30.0727 17.1311 29.0291 16.2551 28.1836C13.2082 25.251 9.31582 23.5447 4.95117 23.2324C3.80859 23.1486 3.51914 23.1486 2.37656 23.24Z" fill="#1B1D3D"/>
</svg>
