<svg width="40" height="40" viewBox="0 0 40 40" fill="none" xmlns="http://www.w3.org/2000/svg">
<path fill-rule="evenodd" clip-rule="evenodd" d="M40 20C40 31.0457 31.0457 40 20 40C8.9543 40 0 31.0457 0 20C0 8.9543 8.9543 0 20 0C31.0457 0 40 8.9543 40 20ZM17.6393 13.171C17.1072 13.0574 16.5189 13 15.8744 13H9.5V26.5465H16.0657C16.6636 26.5477 17.2603 26.4711 17.839 26.3193C18.4142 26.1674 18.9259 25.9342 19.3755 25.6174C19.8251 25.3017 20.1826 24.894 20.4481 24.3941C20.7135 23.8943 20.8463 23.3024 20.8463 22.6197C20.8463 21.7719 20.6406 21.0473 20.2293 20.447C19.8179 19.8468 19.195 19.4259 18.3603 19.1855C18.9666 18.895 19.4257 18.5219 19.7354 18.0663C20.0451 17.6108 20.2006 17.0416 20.2006 16.3588C20.2006 15.7263 20.0965 15.1954 19.8873 14.7649C19.678 14.3344 19.3839 13.9901 19.0048 13.7306C18.6258 13.4711 18.1714 13.2846 17.6393 13.171ZM16.8047 18.1034C16.4627 18.3557 16.0263 18.4824 15.4954 18.4824L12.4798 18.4848V15.3161H15.267C15.5253 15.3149 15.7824 15.3377 16.0359 15.3819C16.2822 15.4261 16.4998 15.5051 16.6899 15.6187C16.88 15.7323 17.0319 15.8913 17.1455 16.0934C17.2591 16.2954 17.3165 16.5549 17.3165 16.8706C17.3177 17.4398 17.1467 17.8499 16.8047 18.1034ZM16.501 24.1454C16.2272 24.2028 15.9474 24.2315 15.6664 24.2303L12.4798 24.2315V20.5128H15.7238C16.3683 20.5128 16.8872 20.6611 17.2794 20.9588C17.6716 21.2553 17.8677 21.7528 17.8677 22.4475C17.8677 22.8014 17.8067 23.0932 17.6872 23.3204C17.5664 23.5476 17.405 23.7281 17.2029 23.8608C17.0008 23.9936 16.7664 24.088 16.501 24.1454ZM26.3394 24.534C25.5802 24.534 24.9978 24.3379 24.5937 23.9457C24.1895 23.5547 23.9683 22.9222 23.9312 22.0529H31.0076C31.0578 21.2936 30.9944 20.5666 30.8174 19.8707C30.6405 19.1748 30.3523 18.5554 29.9541 18.0113C29.556 17.4673 29.0466 17.0344 28.4272 16.7116C27.8066 16.3887 27.0796 16.2273 26.245 16.2273C25.4988 16.2273 24.8185 16.36 24.2051 16.6255C23.5917 16.8909 23.0631 17.2544 22.6207 17.716C22.1783 18.1775 21.8363 18.724 21.596 19.3565C21.3556 19.9891 21.2361 20.6718 21.2361 21.4048C21.2361 22.1629 21.3533 22.8588 21.5864 23.4914C21.8196 24.1239 22.152 24.6668 22.5825 25.1223C23.0129 25.5779 23.5379 25.9295 24.1572 26.1758C24.7766 26.4221 25.4725 26.5453 26.2438 26.5453C27.357 26.5453 28.3052 26.2918 29.0896 25.786C29.874 25.2802 30.4563 24.4396 30.8354 23.263H28.4643C28.3758 23.5667 28.1354 23.8549 27.7432 24.1263C27.351 24.3977 26.8835 24.534 26.3394 24.534ZM26.1685 18.2552C26.8261 18.2552 27.3164 18.4322 27.6392 18.7862C27.9609 19.1401 28.1856 19.659 28.3136 20.3406H23.9312C23.9432 20.1517 23.9851 19.9365 24.0544 19.6961C24.1238 19.4558 24.2433 19.2286 24.4143 19.0133C24.5853 18.7981 24.8125 18.6188 25.0971 18.4729C25.3805 18.3282 25.738 18.2552 26.1685 18.2552ZM28.9449 13.6875H23.4697V15.2061H28.9449V13.6875Z" fill="#1B1D3D"/>
</svg>
