<svg width="40" height="40" viewBox="0 0 40 40" fill="none" xmlns="http://www.w3.org/2000/svg">
<path fill-rule="evenodd" clip-rule="evenodd" d="M40 20C40 31.0457 31.0457 40 20 40C8.9543 40 0 31.0457 0 20C0 8.9543 8.9543 0 20 0C31.0457 0 40 8.9543 40 20ZM16.4913 11.1663C15.7793 11.0143 14.9921 10.9375 14.1297 10.9375H5.6001V29.0639H14.3857C15.1857 29.0655 15.9841 28.9631 16.7585 28.7599C17.528 28.5567 18.2128 28.2447 18.8144 27.8207C19.416 27.3983 19.8944 26.8527 20.2496 26.1839C20.6048 25.5151 20.7824 24.7231 20.7824 23.8095C20.7824 22.6751 20.5072 21.7055 19.9568 20.9023C19.4064 20.0991 18.5728 19.5359 17.456 19.2143C18.2672 18.8255 18.8816 18.3263 19.296 17.7167C19.7104 17.1071 19.9184 16.3455 19.9184 15.4319C19.9184 14.5855 19.7792 13.8751 19.4992 13.2991C19.2192 12.7231 18.8256 12.2623 18.3184 11.9151C17.8112 11.5679 17.2032 11.3183 16.4913 11.1663ZM15.3745 17.7663C14.9169 18.1039 14.3329 18.2735 13.6225 18.2735L9.58728 18.2767V14.0367H13.3169C13.6625 14.0351 14.0065 14.0655 14.3457 14.1247C14.6753 14.1839 14.9665 14.2895 15.2209 14.4415C15.4753 14.5935 15.6785 14.8063 15.8305 15.0767C15.9825 15.3471 16.0593 15.6943 16.0593 16.1167C16.0609 16.8783 15.8321 17.4271 15.3745 17.7663ZM14.9681 25.8511C14.6017 25.9279 14.2273 25.9663 13.8513 25.9647L9.58728 25.9663V20.9903H13.9281C14.7905 20.9903 15.4849 21.1887 16.0097 21.5871C16.5345 21.9839 16.7969 22.6495 16.7969 23.5791C16.7969 24.0527 16.7153 24.4431 16.5553 24.7471C16.3937 25.0511 16.1777 25.2927 15.9073 25.4703C15.6369 25.6479 15.3233 25.7743 14.9681 25.8511ZM28.1328 26.3711C27.1168 26.3711 26.3376 26.1087 25.7968 25.5839C25.256 25.0607 24.96 24.2143 24.9104 23.0511H34.3792C34.4464 22.0351 34.3616 21.0623 34.1248 20.1311C33.888 19.1999 33.5024 18.3711 32.9696 17.6431C32.4368 16.9151 31.7552 16.3359 30.9264 15.9039C30.096 15.4719 29.1232 15.2559 28.0064 15.2559C27.008 15.2559 26.0976 15.4335 25.2768 15.7887C24.456 16.1439 23.7488 16.6303 23.1568 17.2479C22.5648 17.8655 22.1072 18.5967 21.7856 19.4431C21.464 20.2895 21.304 21.2031 21.304 22.1839C21.304 23.1983 21.4608 24.1295 21.7728 24.9759C22.0848 25.8223 22.5296 26.5487 23.1056 27.1583C23.6816 27.7679 24.384 28.2383 25.2128 28.5679C26.0416 28.8975 26.9728 29.0623 28.0048 29.0623C29.4944 29.0623 30.7632 28.7231 31.8128 28.0463C32.8624 27.3695 33.6416 26.2447 34.1488 24.6703H30.976C30.8576 25.0767 30.536 25.4623 30.0112 25.8255C29.4864 26.1887 28.8608 26.3711 28.1328 26.3711ZM27.904 17.9695C28.784 17.9695 29.44 18.2063 29.872 18.6799C30.3024 19.1535 30.6032 19.8479 30.7744 20.7599H24.9104C24.9264 20.5071 24.9824 20.2191 25.0752 19.8975C25.168 19.5759 25.328 19.2719 25.5568 18.9839C25.7856 18.6959 26.0896 18.4559 26.4704 18.2607C26.8496 18.0671 27.328 17.9695 27.904 17.9695ZM31.6192 11.8575H24.2928V13.8895H31.6192V11.8575Z" fill="#1B1D3D"/>
</svg>
