<svg width="40" height="40" viewBox="0 0 40 40" fill="none" xmlns="http://www.w3.org/2000/svg">
<path fill-rule="evenodd" clip-rule="evenodd" d="M20 40C31.0457 40 40 31.0457 40 20C40 8.9543 31.0457 0 20 0C8.9543 0 0 8.9543 0 20C0 31.0457 8.9543 40 20 40ZM19.9994 27.4951C19.9994 29.4265 18.4318 30.9941 16.5004 30.9941C14.5689 30.9941 13.0014 29.4265 13.0014 27.4951C13.0014 25.5636 14.5689 23.9961 16.5004 23.9961H19.9994V27.4951ZM19.9994 16.999H20.0003V16.9983H23.4513C21.5415 17.0236 19.9994 18.5813 19.9994 20.497C19.9994 22.4285 21.567 23.996 23.4984 23.996C25.4298 23.996 26.9974 22.4285 26.9974 20.497C26.9974 18.5767 25.4478 17.0161 23.5316 16.9982C25.4478 16.9803 26.9974 15.4197 26.9974 13.4993C26.9974 11.5679 25.4298 10.0003 23.4984 10.0003H19.9994V10.001H16.5013C14.5699 10.001 13.0023 11.5685 13.0023 13.5C13.0023 15.4119 14.5383 16.9672 16.4428 16.9985C14.5379 17.0293 13.0014 18.5848 13.0014 20.497C13.0014 22.4285 14.5689 23.996 16.5004 23.996H19.9994V16.999Z" fill="#1B1D3D"/>
</svg>
