<svg width="40" height="40" viewBox="0 0 40 40" fill="none" xmlns="http://www.w3.org/2000/svg">
<path d="M18.5156 0.0550461C14.8594 0.398796 11.7812 1.4613 8.98438 3.32848C5.98438 5.32848 3.65625 7.98473 2.0625 11.2113C1.07812 13.2269 0.476562 15.2035 0.140625 17.5394C0.0078125 18.4613 0.0078125 21.5394 0.140625 22.4613C0.46875 24.766 1.07812 26.7816 2.03125 28.7113C3.10156 30.8988 4.15625 32.3675 5.89062 34.1097C7.61719 35.8285 9.10938 36.8988 11.2109 37.93C12.6797 38.6488 13.625 39.0004 15.1172 39.3754C19.0234 40.3597 22.9453 40.1722 26.7578 38.8207C27.9219 38.4066 29.9375 37.3988 30.9766 36.7035C33.3125 35.1488 35.4531 32.9535 36.9844 30.5472C37.5469 29.6644 38.4531 27.7894 38.8203 26.7504C40.6562 21.5785 40.3359 16.0316 37.9219 11.18C36.9531 9.22692 35.8672 7.68786 34.3438 6.11755C32.6562 4.36755 31 3.16442 28.7891 2.07067C26.4766 0.930046 24.3203 0.312859 21.7578 0.0784836C20.9609 0.00817108 19.1562 -0.00745392 18.5156 0.0550461ZM22.6797 6.94567C24.375 7.31286 25.9297 7.97692 27.4219 8.96129C28.6719 9.78942 30.2109 11.3285 31.0391 12.5785C32.0234 14.0629 32.6875 15.6332 33.0625 17.3754C33.2109 18.055 33.2344 18.4066 33.2422 19.9613C33.2422 21.555 33.2188 21.8519 33.0625 22.6097C32.4844 25.3129 31.3281 27.4379 29.3828 29.3832C27.8125 30.9457 26.1641 31.9847 24.1484 32.6488C22.6562 33.1488 22.0234 33.2347 20.0391 33.2425C18.4375 33.2425 18.1484 33.2191 17.3828 33.055C14.6953 32.4769 12.5625 31.3207 10.6172 29.3832C9.05469 27.8207 8.00781 26.1488 7.35156 24.1566C6.85156 22.6488 6.76562 22.0238 6.76562 20.0004C6.76562 18.391 6.78125 18.0629 6.9375 17.3675C7.32031 15.6175 7.96875 14.0785 8.96094 12.5785C9.78906 11.3285 11.3281 9.78942 12.5781 8.96129C14.0859 7.96911 15.6953 7.28942 17.3438 6.9613C18.5469 6.72692 18.5 6.73473 20.2734 6.75817C21.5859 6.7738 22.0703 6.81286 22.6797 6.94567Z" fill="#1B1D3D"/>
<path d="M19.4688 8.91406C18.6094 9.34375 17.6875 10.8828 17.0781 12.8984C16.8828 13.5469 16.5703 14.8594 16.5625 15.0547C16.5625 15.1328 17.3047 15.1562 20 15.1562C22.6953 15.1562 23.4375 15.1328 23.4375 15.0547C23.4375 14.8047 23.0312 13.2109 22.7734 12.4531C22.0625 10.3281 21.0234 8.89062 20.1094 8.78125C19.8906 8.75 19.7109 8.78906 19.4688 8.91406Z" fill="#1B1D3D"/>
<path d="M15.5469 9.67188C13.8125 10.4375 12.3125 11.5938 11.1875 13.0312C10.6406 13.7344 9.92188 14.8828 9.92188 15.0547C9.92188 15.1328 10.3438 15.1562 12.1797 15.1562H14.4297L14.5703 14.4297C14.8828 12.8047 15.5312 10.8125 16.0938 9.78906C16.2109 9.5625 16.2891 9.375 16.2656 9.38281C16.2344 9.38281 15.9141 9.51562 15.5469 9.67188Z" fill="#1B1D3D"/>
<path d="M23.8984 9.78125C24.4453 10.7578 25.0624 12.6016 25.3984 14.2969L25.5703 15.1562H27.8202C29.5781 15.1562 30.0781 15.1328 30.0781 15.0547C30.0781 14.8906 29.3359 13.7031 28.8046 13.0234C27.6562 11.5547 26.039 10.3281 24.2968 9.60938C23.9843 9.47656 23.7187 9.375 23.7031 9.375C23.6796 9.375 23.7734 9.5625 23.8984 9.78125Z" fill="#1B1D3D"/>
<path d="M9.11719 17.2427C8.96094 17.5161 8.75 19.1489 8.75 20.0396C8.75 20.6724 8.92188 22.1021 9.04688 22.5396L9.10938 22.7739L11.6094 22.7974L14.1016 22.813V20.0005V17.188H11.625C10.2656 17.188 9.13281 17.2114 9.11719 17.2427Z" fill="#1B1D3D"/>
<path d="M16.2031 17.7896C16.125 18.5786 16.125 21.4224 16.2031 22.2036L16.2656 22.813H20H23.7344L23.7969 22.2036C23.875 21.4224 23.875 18.5786 23.7969 17.7896L23.7344 17.188H20H16.2656L16.2031 17.7896Z" fill="#1B1D3D"/>
<path d="M25.8984 20.0005V22.813L28.3906 22.7974L30.8906 22.7739L30.9531 22.5396C31.0781 22.0942 31.25 20.6567 31.25 20.0005C31.25 19.3442 31.0781 17.9067 30.9531 17.4614L30.8906 17.2271L28.3906 17.2036L25.8984 17.188V20.0005Z" fill="#1B1D3D"/>
<path d="M9.92188 24.938C9.92188 25.1099 10.6641 26.2896 11.1875 26.9692C12.3203 28.4224 13.8359 29.5786 15.5703 30.3286C15.9453 30.4927 16.2656 30.6255 16.2813 30.6255C16.2969 30.6255 16.2109 30.438 16.0938 30.2114C15.5313 29.1802 14.9375 27.3755 14.6016 25.7036L14.4297 24.8442H12.1797C10.4219 24.8442 9.92188 24.8677 9.92188 24.938Z" fill="#1B1D3D"/>
<path d="M16.5625 24.938C16.5625 24.9927 16.6484 25.4146 16.75 25.8677C17.1641 27.6724 17.8828 29.4146 18.5859 30.2896C19.5859 31.5317 20.4141 31.5317 21.4141 30.2896C22.1172 29.4146 22.8359 27.6724 23.25 25.8677C23.3516 25.4146 23.4375 24.9927 23.4375 24.938C23.4375 24.8677 22.6953 24.8442 20 24.8442C17.3047 24.8442 16.5625 24.8677 16.5625 24.938Z" fill="#1B1D3D"/>
<path d="M25.3986 25.7036C25.0627 27.3989 24.4455 29.2427 23.8986 30.2114C23.7736 30.438 23.6877 30.6255 23.7111 30.6255C23.7268 30.6255 24.0549 30.4927 24.4299 30.3286C26.2893 29.5317 27.8283 28.2974 29.0627 26.6333C29.5158 26.0161 30.0783 25.0786 30.0783 24.9302C30.0783 24.8677 29.3986 24.8442 27.8205 24.8442H25.5705L25.3986 25.7036Z" fill="#1B1D3D"/>
</svg>
